<svg xmlns="http://www.w3.org/2000/svg" width="557" height="62" viewBox="0 0 557 62" fill="none">
  <path d="M543.939 61.0607C544.525 61.6464 545.475 61.6464 546.061 61.0607L555.607 51.5147C556.192 50.9289 556.192 49.9792 555.607 49.3934C555.021 48.8076 554.071 48.8076 553.485 49.3934L545 57.8787L536.515 49.3934C535.929 48.8076 534.979 48.8076 534.393 49.3934C533.808 49.9792 533.808 50.9289 534.393 51.5147L543.939 61.0607ZM0 3.5H499V0.5H0V3.5ZM543.5 48V60H546.5V48H543.5ZM499 3.5C523.577 3.5 543.5 23.4233 543.5 48H546.5C546.5 21.7665 525.234 0.5 499 0.5V3.5Z" fill="black"/>
</svg>