<svg xmlns="http://www.w3.org/2000/svg" width="47" height="34" viewBox="0 0 47 34" fill="none">
  <path d="M38.2929 33.7071C38.6834 34.0976 39.3166 34.0976 39.7071 33.7071L46.0711 27.3431C46.4616 26.9526 46.4616 26.3195 46.0711 25.9289C45.6805 25.5384 45.0474 25.5384 44.6569 25.9289L39 31.5858L33.3431 25.9289C32.9526 25.5384 32.3195 25.5384 31.9289 25.9289C31.5384 26.3195 31.5384 26.9526 31.9289 27.3431L38.2929 33.7071ZM0 2H15V0H0V2ZM38 25V33H40V25H38ZM15 2C27.7026 2 38 12.2975 38 25H40C40 11.1929 28.8071 0 15 0V2Z" fill="black"/>
</svg>